<?xml version="1.0" encoding="UTF-8"?>
<svg xmlns="http://www.w3.org/2000/svg" viewBox="0 0 565.08 668.8">
  <defs>
    <style>
      .cls-1 {
        fill: #71a2cb;
      }

      .cls-2 {
        stroke-dasharray: 3 3;
      }

      .cls-2, .cls-3, .cls-4, .cls-5, .cls-6, .cls-7, .cls-8, .cls-9, .cls-10, .cls-11, .cls-12, .cls-13, .cls-14, .cls-15, .cls-16, .cls-17, .cls-18, .cls-19, .cls-20, .cls-21, .cls-22, .cls-23, .cls-24 {
        stroke-miterlimit: 10;
      }

      .cls-2, .cls-3, .cls-4, .cls-5, .cls-6, .cls-7, .cls-8, .cls-9, .cls-10, .cls-11, .cls-12, .cls-13, .cls-14, .cls-15, .cls-16, .cls-17, .cls-18, .cls-19, .cls-20, .cls-21, .cls-22, .cls-24 {
        fill: none;
      }

      .cls-2, .cls-4, .cls-6, .cls-11, .cls-12, .cls-13, .cls-14, .cls-19 {
        stroke: #000;
      }

      .cls-3 {
        stroke: #e2aad4;
      }

      .cls-4 {
        stroke-dasharray: 2.98 2.98;
      }

      .cls-25 {
        font-size: 9.87px;
      }

      .cls-25, .cls-26, .cls-27, .cls-28, .cls-29, .cls-30, .cls-31 {
        font-style: italic;
      }

      .cls-25, .cls-29, .cls-30, .cls-31 {
        font-family: ArialNarrow-Italic, 'Arial Narrow';
      }

      .cls-5 {
        stroke: #50ece3;
      }

      .cls-6 {
        stroke-dasharray: 1.51 1.51;
      }

      .cls-7 {
        stroke: #b3a1f7;
      }

      .cls-8 {
        stroke: #f77308;
      }

      .cls-9 {
        stroke: #71a2cb;
      }

      .cls-26, .cls-27, .cls-28 {
        font-family: Arial-ItalicMT, Arial;
      }

      .cls-26, .cls-32 {
        font-size: 10px;
      }

      .cls-33 {
        fill: #94c366;
      }

      .cls-27 {
        font-size: 9px;
      }

      .cls-34 {
        fill: #ccc;
      }

      .cls-32, .cls-35, .cls-36, .cls-37 {
        font-family: ArialMT, Arial;
      }

      .cls-10, .cls-23 {
        stroke: #1f889b;
      }

      .cls-38, .cls-23 {
        fill: #1f889b;
      }

      .cls-39 {
        letter-spacing: 0em;
      }

      .cls-40 {
        fill: #5d605f;
      }

      .cls-11 {
        stroke-dasharray: 3.07 3.07;
      }

      .cls-41 {
        fill: #2adbce;
      }

      .cls-12 {
        stroke-dasharray: 3.08 3.08;
      }

      .cls-42 {
        fill: #50ece3;
      }

      .cls-13 {
        stroke-dasharray: 3.11 3.11;
      }

      .cls-14 {
        stroke-dasharray: 3.16 3.16;
      }

      .cls-15 {
        stroke: #5d605f;
      }

      .cls-43 {
        letter-spacing: 0em;
      }

      .cls-16 {
        stroke: #b7dd8a;
      }

      .cls-28 {
        font-size: 11px;
      }

      .cls-44 {
        fill: #e2d20c;
      }

      .cls-45 {
        fill: #d1d3d3;
      }

      .cls-46 {
        letter-spacing: 0em;
      }

      .cls-47 {
        fill: #b7dd8a;
      }

      .cls-17 {
        stroke: #3c2aff;
      }

      .cls-18 {
        stroke: #fda585;
      }

      .cls-48 {
        fill: #b3a1f7;
      }

      .cls-29 {
        font-size: 9.93px;
      }

      .cls-49 {
        fill: #e93400;
      }

      .cls-50 {
        fill: #139705;
      }

      .cls-20 {
        stroke: #c31d76;
      }

      .cls-51 {
        fill: #fda585;
      }

      .cls-52 {
        font-family: ArialNarrow, 'Arial Narrow';
        font-size: 12px;
      }

      .cls-35 {
        font-size: 9.3px;
      }

      .cls-36 {
        font-size: 11.71px;
      }

      .cls-36, .cls-37 {
        fill: #231f20;
      }

      .cls-37 {
        font-size: 11.64px;
      }

      .cls-30 {
        font-size: 8.94px;
      }

      .cls-21 {
        stroke: #e93400;
      }

      .cls-53 {
        letter-spacing: -.08em;
      }

      .cls-54 {
        letter-spacing: -.07em;
      }

      .cls-55 {
        letter-spacing: -.07em;
      }

      .cls-56 {
        letter-spacing: -.07em;
      }

      .cls-57 {
        letter-spacing: -.07em;
      }

      .cls-58 {
        letter-spacing: -.09em;
      }

      .cls-59 {
        letter-spacing: -.09em;
      }

      .cls-60 {
        letter-spacing: -.06em;
      }

      .cls-61 {
        fill: #e2aad4;
      }

      .cls-62 {
        letter-spacing: -.02em;
      }

      .cls-63 {
        letter-spacing: -.02em;
      }

      .cls-64 {
        letter-spacing: -.02em;
      }

      .cls-22 {
        stroke: #139705;
      }

      .cls-65 {
        letter-spacing: -.06em;
      }

      .cls-66 {
        letter-spacing: -.06em;
      }

      .cls-67 {
        letter-spacing: -.06em;
      }

      .cls-68 {
        letter-spacing: -.06em;
      }

      .cls-69 {
        letter-spacing: -.04em;
      }

      .cls-24 {
        stroke: #e2d20c;
      }

      .cls-70 {
        fill: #3c2aff;
      }

      .cls-71 {
        fill: #f77308;
      }

      .cls-31 {
        font-size: 9.76px;
      }

      .cls-72 {
        fill: #c31d76;
      }
    </style>
  </defs>
  <g id="ATN_legends" data-name="ATN legends">
    <text class="cls-52" transform="translate(.01 434.72)"><tspan class="cls-40"><tspan x="0" y="0">AMv: anteromedial nucleus, ventral part</tspan></tspan><tspan class="cls-72"><tspan x="0" y="14.4">AMd.m: anteromedial nucleus, dorsal part, medial domain</tspan></tspan><tspan class="cls-38"><tspan x="0" y="28.8">AMd.dm: anteromedial nucleus, dorsal part, dorsomedial domain</tspan></tspan><tspan class="cls-61"><tspan x="0" y="43.2">AMd.d: anteromedial nucleus, dorsal part, dorsal domain</tspan></tspan><tspan class="cls-48"><tspan x="0" y="57.6">AMd.dl: anteromedial nucleus, dorsal part, dorsolateral domain</tspan></tspan><tspan class="cls-41"><tspan x="0" y="72">AMd.l: anteromedial nucleus, dorsal part, lateral domain</tspan></tspan><tspan class="cls-51"><tspan x="0" y="86.4">AMd.c: anteromedial nucleus, dorsal part, core domain</tspan></tspan><tspan class="cls-71"><tspan x="0" y="115.2">AD.m: anterodorsal nucleus, medial domain</tspan></tspan><tspan class="cls-44"><tspan x="0" y="129.6">AD.l: anterodorsal nucleus, lateral domain</tspan></tspan><tspan class="cls-33"><tspan x="0" y="144">IAD: interanterodorsal nucleus</tspan></tspan><tspan class="cls-49"><tspan class="cls-60" x="0" y="172.8">A</tspan><tspan class="cls-53" x="5.84" y="172.8">V</tspan><tspan x="11.5" y="172.8">.d: anteroventral nucleus, dorsal domain</tspan></tspan><tspan class="cls-70"><tspan class="cls-60" x="0" y="187.2">A</tspan><tspan class="cls-53" x="5.84" y="187.2">V</tspan><tspan x="11.5" y="187.2">.m: anteroventral nucleus, medial domain</tspan></tspan><tspan class="cls-1"><tspan class="cls-60" x="0" y="201.6">A</tspan><tspan class="cls-53" x="5.84" y="201.6">V</tspan><tspan x="11.5" y="201.6">.mt: anteroventral nucleus, medial tip domain</tspan></tspan><tspan class="cls-50"><tspan class="cls-60" x="0" y="216">A</tspan><tspan class="cls-53" x="5.84" y="216">V</tspan><tspan x="11.5" y="216">.l: anteroventral nucleus, lateral domain</tspan></tspan></text>
  </g>
  <g id="ATN_ROIs" data-name="ATN ROIs">
    <rect class="cls-42" x="224.51" y="207.35" width="40.76" height="32.89"/>
    <rect class="cls-40" x="20.73" y="207.35" width="40.76" height="32.89"/>
    <rect class="cls-51" x="265.27" y="207.35" width="40.76" height="32.89"/>
    <rect class="cls-72" x="61.48" y="207.35" width="40.76" height="32.89"/>
    <rect class="cls-61" x="143" y="207.35" width="40.76" height="32.89"/>
    <rect class="cls-38" x="102.24" y="207.35" width="40.76" height="32.89"/>
    <rect class="cls-48" x="183.76" y="207.35" width="40.76" height="32.89"/>
    <text class="cls-35" transform="translate(147.98 234.43)"><tspan class="cls-66" x="0" y="0"> </tspan><tspan x="2.07" y="0">AMd.d</tspan></text>
    <text class="cls-35" transform="translate(104.05 234.6)"><tspan x="0" y="0">AMd.dm</tspan></text>
    <text class="cls-35" transform="translate(188.43 235)"><tspan class="cls-66" x="0" y="0"> </tspan><tspan x="2.07" y="0">AMd.dl</tspan></text>
    <text class="cls-35" transform="translate(231.03 235.48)"><tspan class="cls-66" x="0" y="0"> </tspan><tspan x="2.07" y="0">AMd.l</tspan></text>
    <text class="cls-35" transform="translate(66.94 234.46)"><tspan x="0" y="0">AMd.m</tspan></text>
    <text class="cls-35" transform="translate(270.17 235.34)"><tspan class="cls-66" x="0" y="0"> </tspan><tspan x="2.07" y="0">AMd.c</tspan></text>
    <text class="cls-35" transform="translate(30.57 234.73)"><tspan x="0" y="0">AMv</tspan></text>
    <rect class="cls-70" x="456.21" y="205.24" width="33.7" height="32.89"/>
    <rect class="cls-1" x="489.91" y="205.24" width="33.7" height="32.89"/>
    <rect class="cls-49" x="422.5" y="205.24" width="33.7" height="32.89"/>
    <rect class="cls-50" x="522.83" y="205.24" width="33.7" height="32.89"/>
    <text class="cls-35" transform="translate(428.16 234.27)"><tspan class="cls-66" x="0" y="0"> </tspan><tspan class="cls-54" x="2.07" y="0">A</tspan><tspan class="cls-58" x="7.59" y="0">V</tspan><tspan x="12.94" y="0" xml:space="preserve">.d     </tspan><tspan class="cls-66" x="33.62" y="0"> </tspan><tspan class="cls-54" x="35.69" y="0">A</tspan><tspan class="cls-58" x="41.21" y="0">V</tspan><tspan x="46.56" y="0" xml:space="preserve">.m   </tspan><tspan class="cls-66" x="64.65" y="0"> </tspan><tspan class="cls-55" x="66.72" y="0">A</tspan><tspan class="cls-59" x="72.23" y="0">V</tspan><tspan x="77.58" y="0" xml:space="preserve">.mt    </tspan><tspan class="cls-65" x="100.84" y="0"> </tspan><tspan class="cls-54" x="102.92" y="0">A</tspan><tspan class="cls-58" x="108.43" y="0">V</tspan><tspan class="cls-39" x="113.78" y="0">.l</tspan></text>
    <rect class="cls-44" x="346.45" y="206.53" width="33.7" height="32.89"/>
    <rect class="cls-33" x="380.04" y="206.31" width="33.93" height="32.93"/>
    <rect class="cls-71" x="312.75" y="206.53" width="33.7" height="32.89"/>
    <text class="cls-35" transform="translate(316.53 234.31)"><tspan x="0" y="0" xml:space="preserve">AD.m     </tspan><tspan class="cls-66" x="36.18" y="0"> </tspan><tspan class="cls-43" x="38.25" y="0" xml:space="preserve">AD.l       IAD</tspan></text>
    <text class="cls-28" transform="translate(116.49 218.28)"><tspan x="0" y="0">anteromedial thalamic nucleus</tspan></text>
    <text class="cls-27" transform="translate(318.58 218.28)"><tspan x="0" y="0">anterodorsal thalamus</tspan></text>
    <text class="cls-26" transform="translate(438.53 217.07)"><tspan x="0" y="0">anteroventral thalamus</tspan></text>
  </g>
  <g id="ROIs">
    <rect class="cls-34" x="499.39" y="132.7" width="45.4" height="24.4"/>
    <text class="cls-36" transform="translate(505.85 148.77) scale(1.01 1)"><tspan x="0" y="0">CPdm</tspan></text>
    <text class="cls-31" transform="translate(494.81 129.45) scale(1.01 1)"><tspan x="0" y="0">visual striatum</tspan></text>
    <rect class="cls-34" x="51.55" y="131.57" width="45.29" height="24.4"/>
    <text class="cls-36" transform="translate(58.95 147.39) scale(1.01 1)"><tspan x="0" y="0">BLAa</tspan></text>
    <text class="cls-31" transform="translate(55.55 128.25) scale(1.01 1)"><tspan x="0" y="0">amygdala</tspan></text>
    <rect class="cls-45" x="213.56" y="280.52" width="41.45" height="119.72"/>
    <text class="cls-36" transform="translate(233.64 295.77) scale(1.01 1)"><tspan x="0" y="0">SC </tspan><tspan x="-2.6" y="24.21">LD</tspan><tspan class="cls-63" x="12.37" y="24.21">T</tspan><tspan x="-3.9" y="48.41">VTN</tspan><tspan x="2.61" y="72.62">DR</tspan><tspan x="-4.55" y="96.82">DTN</tspan></text>
    <text class="cls-25" transform="translate(223.19 388.25) rotate(-90) scale(.99 1)"><tspan x="0" y="0">hindbrain &amp; midbrain areas</tspan></text>
    <rect class="cls-45" x="332.6" y="305.79" width="51.81" height="93.85"/>
    <text class="cls-36" transform="translate(339.66 320.95) scale(1.01 1)"><tspan x="0" y="0">MMmed</tspan><tspan x="13.03" y="24.21">MMm</tspan><tspan x="20.18" y="48.41">MMl</tspan><tspan x="26.03" y="72.62">LM</tspan></text>
    <text/>
    <text class="cls-25" transform="translate(341.64 395.23) rotate(-90) scale(.99 1)"><tspan x="0" y="0">mammillary bodies</tspan></text>
    <rect class="cls-45" x="395.83" y="5.75" width="44.7" height="138.96"/>
    <text class="cls-37" transform="translate(406.88 21.2) scale(1.02 1)"><tspan x="0" y="0">POS</tspan><tspan class="cls-62" x="24.58" y="0">T</tspan><tspan x="7.76" y="24.05">PRE</tspan><tspan class="cls-56" x="8.62" y="48.1">P</tspan><tspan x="15.52" y="48.1">AR</tspan><tspan x="1.28" y="72.16">SUBd</tspan><tspan x="1.94" y="96.21">SUBv</tspan><tspan x="5.83" y="120.26">ENTl</tspan></text>
    <text class="cls-29" transform="translate(404.42 106.36) rotate(-90) scale(.98 1)"><tspan x="0" y="0">hippocampal areas</tspan></text>
    <rect class="cls-45" x="126.77" y="5" width="53.15" height="106.91"/>
    <text class="cls-37" transform="translate(148.43 19.21) scale(1.02 1)"><tspan x="0" y="0">ACAr</tspan><tspan x="-1.94" y="12.03">ACAc</tspan><tspan x="13.57" y="36.08">P</tspan><tspan class="cls-69" x="21.33" y="36.08">L</tspan><tspan x="10.34" y="60.13">IL</tspan><tspan class="cls-67" x="20.04" y="60.13">A</tspan><tspan x="-18.75" y="84.18">ORBm/vl</tspan></text>
    <text class="cls-30" transform="translate(137.2 87.69) rotate(-90) scale(.98 1)"><tspan x="0" y="0">Medial prefrontal cortex</tspan></text>
    <rect class="cls-45" x="255.53" y="4.97" width="67.07" height="152.27"/>
    <text class="cls-37" transform="translate(288.96 23.43) scale(1.02 1)"><tspan x="0" y="0">RSPd</tspan><tspan x=".65" y="24.05">RSPv</tspan><tspan x="-16.8" y="36.08">RSPv (6)</tspan><tspan x="-9.06" y="60.13">RSPagl</tspan></text>
    <text class="cls-37" transform="translate(291.97 107.61) scale(1.02 1)"><tspan x="0" y="0">PTLp</tspan></text>
    <text class="cls-37" transform="translate(279.64 128.14) scale(1.02 1)"><tspan x="0" y="0">MOs fef</tspan></text>
    <text class="cls-29" transform="translate(266.03 101.22) rotate(-90) scale(.98 1)"><tspan class="cls-64" x="0" y="0">V</tspan><tspan class="cls-46" x="5.25" y="0">isual cortical areas</tspan></text>
    <text class="cls-37" transform="translate(260.15 147.76) scale(1.02 1)"><tspan x="0" y="0">ECT/PERIc</tspan></text>
  </g>
  <g id="IAD_cnx" data-name="IAD cnx">
    <g>
      <line class="cls-16" x1="384.49" y1="316.63" x2="394.87" y2="316.63"/>
      <path class="cls-47" d="M398.49,316.63c-1.7.63-3.82,1.71-5.13,2.85l1.03-2.85-1.03-2.85c1.31,1.14,3.42,2.22,5.13,2.85Z"/>
    </g>
    <line class="cls-16" x1="397.49" y1="316.97" x2="397.49" y2="262.74"/>
    <g>
      <line class="cls-16" x1="562.02" y1="143.15" x2="548.84" y2="143.15"/>
      <path class="cls-47" d="M545.22,143.15c1.7-.63,3.82-1.71,5.13-2.85l-1.03,2.85,1.03,2.85c-1.31-1.14-3.42-2.22-5.13-2.85Z"/>
    </g>
    <line class="cls-16" x1="562.36" y1="186.74" x2="562.36" y2="142.74"/>
    <line class="cls-16" x1="397.36" y1="262.77" x2="397.36" y2="236.74"/>
    <g>
      <line class="cls-16" x1="440.53" y1="112.74" x2="461.41" y2="112.74"/>
      <path class="cls-47" d="M465.03,112.74c-1.7.63-3.82,1.71-5.13,2.85l1.03-2.85-1.03-2.85c1.31,1.14,3.42,2.22,5.13,2.85Z"/>
    </g>
    <line class="cls-16" x1="464.36" y1="186.74" x2="464.36" y2="113.74"/>
    <line class="cls-16" x1="397.36" y1="206.99" x2="397.36" y2="186.74"/>
    <g>
      <line class="cls-16" x1="255" y1="292.32" x2="276.87" y2="292.32"/>
      <path class="cls-47" d="M280.5,292.32c-1.7.63-3.82,1.71-5.13,2.85l1.03-2.85-1.03-2.85c1.31,1.14,3.42,2.22,5.13,2.85Z"/>
    </g>
    <line class="cls-16" x1="280.75" y1="292.74" x2="280.75" y2="262.74"/>
    <line class="cls-16" x1="397.03" y1="262.91" x2="280.66" y2="262.91"/>
    <line class="cls-16" x1="562.03" y1="187.15" x2="397.16" y2="187.15"/>
  </g>
  <g id="ADm_cnx" data-name="ADm cnx">
    <g>
      <line class="cls-8" x1="255.48" y1="341.4" x2="287.36" y2="341.4"/>
      <path class="cls-71" d="M290.98,341.4c-1.7.63-3.82,1.71-5.13,2.85l1.03-2.85-1.03-2.85c1.31,1.14,3.42,2.22,5.13,2.85Z"/>
    </g>
    <g>
      <line class="cls-8" x1="255.73" y1="364.03" x2="287.36" y2="364.03"/>
      <path class="cls-71" d="M290.98,364.03c-1.7.63-3.82,1.71-5.13,2.85l1.03-2.85-1.03-2.85c1.31,1.14,3.42,2.22,5.13,2.85Z"/>
    </g>
    <g>
      <line class="cls-8" x1="255.73" y1="390.03" x2="287.36" y2="390.03"/>
      <path class="cls-71" d="M290.98,390.03c-1.7.63-3.82,1.71-5.13,2.85l1.03-2.85-1.03-2.85c1.31,1.14,3.42,2.22,5.13,2.85Z"/>
    </g>
    <g>
      <line class="cls-8" x1="480.03" y1="12.22" x2="445.15" y2="12.22"/>
      <path class="cls-71" d="M441.53,12.22c1.7-.63,3.82-1.71,5.13-2.85l-1.03,2.85,1.03,2.85c-1.31-1.14-3.42-2.22-5.13-2.85Z"/>
    </g>
    <g>
      <line class="cls-8" x1="480.03" y1="39.22" x2="444.76" y2="39.22"/>
      <path class="cls-71" d="M441.14,39.22c1.7-.63,3.82-1.71,5.13-2.85l-1.03,2.85,1.03,2.85c-1.31-1.14-3.42-2.22-5.13-2.85Z"/>
    </g>
    <g>
      <line class="cls-8" x1="480.03" y1="61.22" x2="444.76" y2="61.22"/>
      <path class="cls-71" d="M441.14,61.22c1.7-.63,3.82-1.71,5.13-2.85l-1.03,2.85,1.03,2.85c-1.31-1.14-3.42-2.22-5.13-2.85Z"/>
    </g>
    <line class="cls-8" x1="291.03" y1="389.74" x2="291.03" y2="272.74"/>
    <g>
      <line class="cls-8" x1="384.73" y1="390.72" x2="421.41" y2="390.72"/>
      <path class="cls-71" d="M425.03,390.72c-1.7.63-3.82,1.71-5.13,2.85l1.03-2.85-1.03-2.85c1.31,1.14,3.42,2.22,5.13,2.85Z"/>
    </g>
    <line class="cls-8" x1="426.03" y1="390.24" x2="426.03" y2="272.74"/>
    <line class="cls-8" x1="480.23" y1="189.74" x2="480.23" y2="11.74"/>
    <line class="cls-8" x1="426.03" y1="272.72" x2="290.73" y2="272.72"/>
    <line class="cls-8" x1="480.03" y1="189.72" x2="329.03" y2="189.72"/>
    <line class="cls-8" x1="329.23" y1="206.74" x2="329.23" y2="189.74"/>
    <line class="cls-8" x1="332.23" y1="272.74" x2="332.23" y2="237.08"/>
  </g>
  <g id="ADl_cnx" data-name="ADl cnx">
    <g>
      <line class="cls-24" x1="255.26" y1="337.06" x2="279.14" y2="337.06"/>
      <path class="cls-44" d="M282.76,337.06c-1.7.63-3.82,1.71-5.13,2.85l1.03-2.85-1.03-2.85c1.31,1.14,3.42,2.22,5.13,2.85Z"/>
    </g>
    <g>
      <line class="cls-24" x1="255.26" y1="360.06" x2="280.14" y2="360.06"/>
      <path class="cls-44" d="M283.76,360.06c-1.7.63-3.82,1.71-5.13,2.85l1.03-2.85-1.03-2.85c1.31,1.14,3.42,2.22,5.13,2.85Z"/>
    </g>
    <g>
      <line class="cls-24" x1="255.26" y1="386.06" x2="280.14" y2="386.06"/>
      <path class="cls-44" d="M283.76,386.06c-1.7.63-3.82,1.71-5.13,2.85l1.03-2.85-1.03-2.85c1.31,1.14,3.42,2.22,5.13,2.85Z"/>
    </g>
    <g>
      <line class="cls-24" x1="384.51" y1="385.56" x2="417.41" y2="385.56"/>
      <path class="cls-44" d="M421.03,385.56c-1.7.63-3.82,1.71-5.13,2.85l1.03-2.85-1.03-2.85c1.31,1.14,3.42,2.22,5.13,2.85Z"/>
    </g>
    <g>
      <line class="cls-24" x1="344.41" y1="44.88" x2="325.98" y2="44.88"/>
      <path class="cls-44" d="M348.03,44.88c-1.7-.63-3.82-1.71-5.13-2.85l1.03,2.85-1.03,2.85c1.31-1.14,3.42-2.22,5.13-2.85Z"/>
      <path class="cls-44" d="M322.35,44.88c1.7-.63,3.82-1.71,5.13-2.85l-1.03,2.85,1.03,2.85c-1.31-1.14-3.42-2.22-5.13-2.85Z"/>
    </g>
    <g>
      <line class="cls-24" x1="344.41" y1="15.44" x2="325.16" y2="15.44"/>
      <path class="cls-44" d="M348.03,15.44c-1.7-.63-3.82-1.71-5.13-2.85l1.03,2.85-1.03,2.85c1.31-1.14,3.42-2.22,5.13-2.85Z"/>
      <path class="cls-44" d="M321.54,15.44c1.7-.63,3.82-1.71,5.13-2.85l-1.03,2.85,1.03,2.85c-1.31-1.14-3.42-2.22-5.13-2.85Z"/>
    </g>
    <line class="cls-24" x1="348.03" y1="192.74" x2="348.03" y2="15.74"/>
    <line class="cls-24" x1="364.51" y1="206.76" x2="364.51" y2="192.74"/>
    <line class="cls-24" x1="364.51" y1="266.74" x2="364.51" y2="237.25"/>
    <line class="cls-24" x1="422.51" y1="386.51" x2="422.51" y2="266.74"/>
    <line class="cls-24" x1="283.51" y1="387.74" x2="283.51" y2="266.74"/>
    <line class="cls-24" x1="283.03" y1="267.26" x2="422.03" y2="267.26"/>
    <line class="cls-24" x1="364.52" y1="192.26" x2="348.03" y2="192.26"/>
  </g>
  <g id="LD_to_AV_non-domain_specific_cnx" data-name="LD to AV  non-domain specific cnx">
    <g>
      <line class="cls-19" x1="255.53" y1="311.74" x2="269.41" y2="311.74"/>
      <path d="M273.03,311.74c-1.7.63-3.82,1.71-5.13,2.85l1.03-2.85-1.03-2.85c1.31,1.14,3.42,2.22,5.13,2.85Z"/>
    </g>
    <line class="cls-19" x1="274.03" y1="407.74" x2="274.03" y2="311.24"/>
    <line class="cls-19" x1="565.03" y1="407.63" x2="274.83" y2="407.63"/>
    <line class="cls-19" x1="564.58" y1="221.74" x2="564.58" y2="407.74"/>
    <line class="cls-19" x1="565.03" y1="221.63" x2="557.03" y2="221.63"/>
  </g>
  <g id="AVd">
    <g>
      <line class="cls-21" x1="463.67" y1="19.13" x2="444.32" y2="19.13"/>
      <path class="cls-49" d="M467.29,19.13c-1.7-.63-3.82-1.71-5.13-2.85l1.03,2.85-1.03,2.85c1.31-1.14,3.42-2.22,5.13-2.85Z"/>
      <path class="cls-49" d="M440.7,19.13c1.7-.63,3.82-1.71,5.13-2.85l-1.03,2.85,1.03,2.85c-1.31-1.14-3.42-2.22-5.13-2.85Z"/>
    </g>
    <g>
      <line class="cls-21" x1="463.91" y1="45.3" x2="444.57" y2="45.3"/>
      <path class="cls-49" d="M467.53,45.3c-1.7-.63-3.82-1.71-5.13-2.85l1.03,2.85-1.03,2.85c1.31-1.14,3.42-2.22,5.13-2.85Z"/>
      <path class="cls-49" d="M440.95,45.3c1.7-.63,3.82-1.71,5.13-2.85l-1.03,2.85,1.03,2.85c-1.31-1.14-3.42-2.22-5.13-2.85Z"/>
    </g>
    <g>
      <line class="cls-21" x1="463.91" y1="67.3" x2="444.57" y2="67.3"/>
      <path class="cls-49" d="M467.53,67.3c-1.7-.63-3.82-1.71-5.13-2.85l1.03,2.85-1.03,2.85c1.31-1.14,3.42-2.22,5.13-2.85Z"/>
      <path class="cls-49" d="M440.95,67.3c1.7-.63,3.82-1.71,5.13-2.85l-1.03,2.85,1.03,2.85c-1.31-1.14-3.42-2.22-5.13-2.85Z"/>
    </g>
    <g>
      <line class="cls-21" x1="351.41" y1="21.56" x2="326.96" y2="21.56"/>
      <path class="cls-49" d="M355.03,21.56c-1.7-.63-3.82-1.71-5.13-2.85l1.03,2.85-1.03,2.85c1.31-1.14,3.42-2.22,5.13-2.85Z"/>
      <path class="cls-49" d="M323.34,21.56c1.7-.63,3.82-1.71,5.13-2.85l-1.03,2.85,1.03,2.85c-1.31-1.14-3.42-2.22-5.13-2.85Z"/>
    </g>
    <g>
      <line class="cls-21" x1="351.41" y1="79.48" x2="326.01" y2="79.48"/>
      <path class="cls-49" d="M355.03,79.48c-1.7-.63-3.82-1.71-5.13-2.85l1.03,2.85-1.03,2.85c1.31-1.14,3.42-2.22,5.13-2.85Z"/>
      <path class="cls-49" d="M322.39,79.48c1.7-.63,3.82-1.71,5.13-2.85l-1.03,2.85,1.03,2.85c-1.31-1.14-3.42-2.22-5.13-2.85Z"/>
    </g>
    <line class="cls-21" x1="355.23" y1="199.74" x2="355.23" y2="21.74"/>
    <line class="cls-21" x1="468.23" y1="199.74" x2="468.23" y2="18.74"/>
    <line class="cls-21" x1="355.03" y1="200.11" x2="468.03" y2="200.11"/>
    <line class="cls-21" x1="438.86" y1="205.74" x2="438.86" y2="199.74"/>
    <line class="cls-21" x1="438.86" y1="260.74" x2="438.86" y2="238.17"/>
    <g>
      <line class="cls-21" x1="411.41" y1="367.17" x2="384.47" y2="367.17"/>
      <path class="cls-49" d="M415.03,367.17c-1.7-.63-3.82-1.71-5.13-2.85l1.03,2.85-1.03,2.85c1.31-1.14,3.42-2.22,5.13-2.85Z"/>
    </g>
    <line class="cls-21" x1="414.86" y1="367.18" x2="414.86" y2="260.74"/>
    <line class="cls-21" x1="415.03" y1="261.17" x2="439.03" y2="261.17"/>
  </g>
  <g id="AVm">
    <g>
      <line class="cls-17" x1="337.41" y1="39.41" x2="326.36" y2="39.41"/>
      <path class="cls-70" d="M341.03,39.41c-1.7-.63-3.82-1.71-5.13-2.85l1.03,2.85-1.03,2.85c1.31-1.14,3.42-2.22,5.13-2.85Z"/>
      <path class="cls-70" d="M322.74,39.41c1.7-.63,3.82-1.71,5.13-2.85l-1.03,2.85,1.03,2.85c-1.31-1.14-3.42-2.22-5.13-2.85Z"/>
    </g>
    <g>
      <line class="cls-17" x1="384.45" y1="362.41" x2="407.41" y2="362.41"/>
      <path class="cls-70" d="M411.03,362.41c-1.7.63-3.82,1.71-5.13,2.85l1.03-2.85-1.03-2.85c1.31,1.14,3.42,2.22,5.13,2.85Z"/>
    </g>
    <line class="cls-17" x1="410.58" y1="362.89" x2="410.58" y2="256.74"/>
    <line class="cls-17" x1="474.03" y1="256.74" x2="410.03" y2="256.74"/>
    <line class="cls-17" x1="473.58" y1="256.74" x2="473.58" y2="238.9"/>
    <line class="cls-17" x1="340.58" y1="197.74" x2="340.58" y2="39.74"/>
    <line class="cls-17" x1="472.03" y1="197.41" x2="341.03" y2="197.41"/>
    <line class="cls-17" x1="471.58" y1="205.74" x2="471.58" y2="196.99"/>
  </g>
  <g id="AVmt">
    <g>
      <line class="cls-9" x1="322.42" y1="58.41" x2="332.41" y2="58.41"/>
      <path class="cls-1" d="M336.03,58.41c-1.7.63-3.82,1.71-5.13,2.85l1.03-2.85-1.03-2.85c1.31,1.14,3.42,2.22,5.13,2.85Z"/>
    </g>
    <g>
      <line class="cls-9" x1="440.42" y1="118.41" x2="455.41" y2="118.41"/>
      <path class="cls-1" d="M459.03,118.41c-1.7.63-3.82,1.71-5.13,2.85l1.03-2.85-1.03-2.85c1.31,1.14,3.42,2.22,5.13,2.85Z"/>
    </g>
    <g>
      <line class="cls-9" x1="385.04" y1="357.41" x2="400.41" y2="357.41"/>
      <path class="cls-1" d="M404.03,357.41c-1.7.63-3.82,1.71-5.13,2.85l1.03-2.85-1.03-2.85c1.31,1.14,3.42,2.22,5.13,2.85Z"/>
    </g>
    <line class="cls-9" x1="403.58" y1="356.63" x2="403.58" y2="252.74"/>
    <line class="cls-9" x1="458.58" y1="193.74" x2="458.58" y2="118.74"/>
    <line class="cls-9" x1="506.58" y1="205.74" x2="506.58" y2="193.74"/>
    <line class="cls-9" x1="507.58" y1="252.74" x2="507.58" y2="238.41"/>
    <line class="cls-9" x1="507.03" y1="252.41" x2="403.03" y2="252.41"/>
    <line class="cls-9" x1="506.38" y1="194.02" x2="336.03" y2="194.02"/>
    <line class="cls-9" x1="336.4" y1="58.74" x2="336.4" y2="193.74"/>
  </g>
  <g id="AVl">
    <g>
      <line class="cls-22" x1="475.03" y1="108.15" x2="443.95" y2="108.15"/>
      <path class="cls-50" d="M440.33,108.15c1.7-.63,3.82-1.71,5.13-2.85l-1.03,2.85,1.03,2.85c-1.31-1.14-3.42-2.22-5.13-2.85Z"/>
    </g>
    <g>
      <line class="cls-22" x1="384.49" y1="373.15" x2="415.41" y2="373.15"/>
      <path class="cls-50" d="M419.03,373.15c-1.7.63-3.82,1.71-5.13,2.85l1.03-2.85-1.03-2.85c1.31,1.14,3.42,2.22,5.13,2.85Z"/>
    </g>
    <g>
      <line class="cls-22" x1="440.33" y1="89.15" x2="471.41" y2="89.15"/>
      <path class="cls-50" d="M475.03,89.15c-1.7.63-3.82,1.71-5.13,2.85l1.03-2.85-1.03-2.85c1.31,1.14,3.42,2.22,5.13,2.85Z"/>
    </g>
    <line class="cls-22" x1="475.03" y1="88.74" x2="475.03" y2="191.74"/>
    <line class="cls-22" x1="418.58" y1="245.74" x2="418.58" y2="373.4"/>
    <line class="cls-22" x1="474.53" y1="191.74" x2="539.53" y2="191.74"/>
    <line class="cls-22" x1="539.58" y1="191.9" x2="539.58" y2="205.74"/>
    <line class="cls-22" x1="539.58" y1="238.23" x2="539.58" y2="245.74"/>
    <line class="cls-22" x1="419.03" y1="246.15" x2="540.03" y2="246.15"/>
  </g>
  <g id="MMm_to_AM_non-domain_specific_cnx" data-name="MMm to AM non-domain specific cnx">
    <g>
      <line class="cls-19" x1="385.24" y1="341.63" x2="388.3" y2="341.63"/>
      <path d="M391.92,341.63c-1.7.63-3.82,1.71-5.13,2.85l1.03-2.85-1.03-2.85c1.31,1.14,3.42,2.22,5.13,2.85Z"/>
    </g>
    <g>
      <line class="cls-19" x1="391.03" y1="340.24" x2="391.03" y2="338.74"/>
      <line class="cls-12" x1="391.03" y1="335.66" x2="391.03" y2="281.78"/>
      <line class="cls-19" x1="391.03" y1="280.24" x2="391.03" y2="278.74"/>
    </g>
    <g>
      <line class="cls-19" x1="390.08" y1="276.63" x2="388.58" y2="276.63"/>
      <line class="cls-4" x1="385.6" y1="276.63" x2="12.02" y2="276.63"/>
      <line class="cls-19" x1="10.53" y1="276.63" x2="9.03" y2="276.63"/>
    </g>
    <g>
      <line class="cls-19" x1="8.58" y1="279.38" x2="8.58" y2="277.88"/>
      <line class="cls-14" x1="8.58" y1="274.73" x2="8.58" y2="225.82"/>
      <line class="cls-19" x1="8.58" y1="224.24" x2="8.58" y2="222.74"/>
    </g>
    <g>
      <line class="cls-19" x1="21.03" y1="222.63" x2="19.53" y2="222.63"/>
      <line class="cls-2" x1="16.53" y1="222.63" x2="12.03" y2="222.63"/>
      <line class="cls-19" x1="10.53" y1="222.63" x2="9.03" y2="222.63"/>
    </g>
  </g>
  <g id="LD_to_AM_non-domain_specific_cnx" data-name="LD to AM non-domain specific cnx">
    <g>
      <line class="cls-19" x1="255.03" y1="319.63" x2="256.53" y2="319.63"/>
      <line class="cls-6" x1="258.05" y1="319.63" x2="260.32" y2="319.63"/>
      <line class="cls-19" x1="261.07" y1="319.63" x2="262.57" y2="319.63"/>
      <path d="M266.2,319.63c-1.7.63-3.82,1.71-5.13,2.85l1.03-2.85-1.03-2.85c1.31,1.14,3.42,2.22,5.13,2.85Z"/>
    </g>
    <g>
      <line class="cls-19" x1="266.58" y1="406.74" x2="266.58" y2="405.24"/>
      <line class="cls-13" x1="266.58" y1="402.13" x2="266.58" y2="322.93"/>
      <line class="cls-19" x1="266.58" y1="321.38" x2="266.58" y2="319.88"/>
    </g>
    <g>
      <line class="cls-19" x1="267.03" y1="406.63" x2="265.53" y2="406.63"/>
      <line class="cls-2" x1="262.53" y1="406.63" x2="12.03" y2="406.63"/>
      <line class="cls-19" x1="10.53" y1="406.63" x2="9.03" y2="406.63"/>
    </g>
    <g>
      <line class="cls-19" x1="8.75" y1="406.74" x2="8.75" y2="405.24"/>
      <line class="cls-11" x1="8.75" y1="402.17" x2="8.75" y2="280.85"/>
      <line class="cls-19" x1="8.75" y1="279.31" x2="8.75" y2="277.81"/>
    </g>
  </g>
  <g id="AMd.dm">
    <g>
      <line class="cls-20" x1="220.41" y1="47.11" x2="184.04" y2="47.11"/>
      <path class="cls-72" d="M224.03,47.11c-1.7-.63-3.82-1.71-5.13-2.85l1.03,2.85-1.03,2.85c1.31-1.14,3.42-2.22,5.13-2.85Z"/>
      <path class="cls-72" d="M180.41,47.11c1.7-.63,3.82-1.71,5.13-2.85l-1.03,2.85,1.03,2.85c-1.31-1.14-3.42-2.22-5.13-2.85Z"/>
    </g>
    <g>
      <line class="cls-20" x1="220.41" y1="72.11" x2="184.04" y2="72.11"/>
      <path class="cls-72" d="M224.03,72.11c-1.7-.63-3.82-1.71-5.13-2.85l1.03,2.85-1.03,2.85c1.31-1.14,3.42-2.22,5.13-2.85Z"/>
      <path class="cls-72" d="M180.41,72.11c1.7-.63,3.82-1.71,5.13-2.85l-1.03,2.85,1.03,2.85c-1.31-1.14-3.42-2.22-5.13-2.85Z"/>
    </g>
    <g>
      <line class="cls-20" x1="220.41" y1="96.11" x2="184.04" y2="96.11"/>
      <path class="cls-72" d="M224.03,96.11c-1.7-.63-3.82-1.71-5.13-2.85l1.03,2.85-1.03,2.85c1.31-1.14,3.42-2.22,5.13-2.85Z"/>
      <path class="cls-72" d="M180.41,96.11c1.7-.63,3.82-1.71,5.13-2.85l-1.03,2.85,1.03,2.85c-1.31-1.14-3.42-2.22-5.13-2.85Z"/>
    </g>
    <g>
      <line class="cls-20" x1="100.15" y1="143.74" x2="112.53" y2="143.74"/>
      <path class="cls-72" d="M96.53,143.74c1.7.63,3.82,1.71,5.13,2.85l-1.03-2.85,1.03-2.85c-1.31,1.14-3.42,2.22-5.13,2.85Z"/>
    </g>
    <g>
      <line class="cls-20" x1="451.41" y1="123.74" x2="440.03" y2="123.74"/>
      <path class="cls-72" d="M455.03,123.74c-1.7-.63-3.82-1.71-5.13-2.85l1.03,2.85-1.03,2.85c1.31-1.14,3.42-2.22,5.13-2.85Z"/>
    </g>
    <line class="cls-20" x1="224.03" y1="46.74" x2="224.03" y2="183.74"/>
    <line class="cls-20" x1="455.03" y1="123.74" x2="455.03" y2="183.74"/>
    <line class="cls-20" x1="81.03" y1="184.15" x2="455.03" y2="184.15"/>
    <line class="cls-20" x1="80.53" y1="183.74" x2="80.53" y2="207.4"/>
    <line class="cls-20" x1="112.32" y1="143.74" x2="112.32" y2="183.74"/>
  </g>
  <g id="AMv">
    <g>
      <line class="cls-15" x1="212.41" y1="54.5" x2="183.94" y2="54.5"/>
      <path class="cls-40" d="M216.03,54.5c-1.7-.63-3.82-1.71-5.13-2.85l1.03,2.85-1.03,2.85c1.31-1.14,3.42-2.22,5.13-2.85Z"/>
      <path class="cls-40" d="M180.32,54.5c1.7-.63,3.82-1.71,5.13-2.85l-1.03,2.85,1.03,2.85c-1.31-1.14-3.42-2.22-5.13-2.85Z"/>
    </g>
    <g>
      <line class="cls-15" x1="212.41" y1="78.5" x2="183.94" y2="78.5"/>
      <path class="cls-40" d="M216.03,78.5c-1.7-.63-3.82-1.71-5.13-2.85l1.03,2.85-1.03,2.85c1.31-1.14,3.42-2.22,5.13-2.85Z"/>
      <path class="cls-40" d="M180.32,78.5c1.7-.63,3.82-1.71,5.13-2.85l-1.03,2.85,1.03,2.85c-1.31-1.14-3.42-2.22-5.13-2.85Z"/>
    </g>
    <g>
      <line class="cls-15" x1="212.41" y1="101.5" x2="182.94" y2="101.5"/>
      <path class="cls-40" d="M216.03,101.5c-1.7-.63-3.82-1.71-5.13-2.85l1.03,2.85-1.03,2.85c1.31-1.14,3.42-2.22,5.13-2.85Z"/>
      <path class="cls-40" d="M179.32,101.5c1.7-.63,3.82-1.71,5.13-2.85l-1.03,2.85,1.03,2.85c-1.31-1.14-3.42-2.22-5.13-2.85Z"/>
    </g>
    <line class="cls-15" x1="216.32" y1="10.74" x2="216.32" y2="178.74"/>
    <line class="cls-15" x1="41.03" y1="178.5" x2="216.03" y2="178.5"/>
    <line class="cls-15" x1="41.03" y1="208.24" x2="41.03" y2="178.74"/>
    <g>
      <line class="cls-15" x1="183.33" y1="10.5" x2="216.03" y2="10.5"/>
      <path class="cls-40" d="M179.71,10.5c1.7.63,3.82,1.71,5.13,2.85l-1.03-2.85,1.03-2.85c-1.31,1.14-3.42,2.22-5.13,2.85Z"/>
    </g>
  </g>
  <g id="AMd.d">
    <line class="cls-3" x1="198.99" y1="28.74" x2="198.99" y2="194.74"/>
    <line class="cls-3" x1="163.53" y1="194.77" x2="199.03" y2="194.77"/>
    <line class="cls-3" x1="163.99" y1="194.74" x2="163.99" y2="206.97"/>
    <g>
      <line class="cls-3" x1="194.41" y1="28.97" x2="183.65" y2="28.97"/>
      <path class="cls-61" d="M198.03,28.97c-1.7-.63-3.82-1.71-5.13-2.85l1.03,2.85-1.03,2.85c1.31-1.14,3.42-2.22,5.13-2.85Z"/>
      <path class="cls-61" d="M180.03,28.97c1.7-.63,3.82-1.71,5.13-2.85l-1.03,2.85,1.03,2.85c-1.31-1.14-3.42-2.22-5.13-2.85Z"/>
    </g>
  </g>
  <g id="AMd.dm-2" data-name="AMd.dm">
    <g>
      <line class="cls-10" x1="201.41" y1="17.74" x2="184.15" y2="17.74"/>
      <path class="cls-38" d="M205.03,17.74c-1.7-.63-3.82-1.71-5.13-2.85l1.03,2.85-1.03,2.85c1.31-1.14,3.42-2.22,5.13-2.85Z"/>
      <path class="cls-38" d="M180.53,17.74c1.7-.63,3.82-1.71,5.13-2.85l-1.03,2.85,1.03,2.85c-1.31-1.14-3.42-2.22-5.13-2.85Z"/>
    </g>
    <line class="cls-23" x1="204.49" y1="17.74" x2="204.49" y2="189.74"/>
    <line class="cls-23" x1="123.03" y1="189.41" x2="205.03" y2="189.41"/>
    <line class="cls-23" x1="123.4" y1="189.74" x2="123.4" y2="205.74"/>
  </g>
  <g id="AMd.dl">
    <g>
      <line class="cls-7" x1="322.75" y1="49.41" x2="358.41" y2="49.41"/>
      <path class="cls-48" d="M362.03,49.41c-1.7.63-3.82,1.71-5.13,2.85l1.03-2.85-1.03-2.85c1.31,1.14,3.42,2.22,5.13,2.85Z"/>
    </g>
    <line class="cls-7" x1="362.4" y1="49.74" x2="362.4" y2=".74"/>
    <line class="cls-7" x1="362.03" y1=".5" x2="232.03" y2=".5"/>
    <line class="cls-7" x1="232.4" y1="199.74" x2="232.4" y2=".74"/>
    <line class="cls-7" x1="232.03" y1="199.74" x2="203.53" y2="199.74"/>
    <line class="cls-7" x1="203.25" y1="199.74" x2="203.25" y2="207.74"/>
  </g>
  <g id="AMd.l">
    <g>
      <line class="cls-5" x1="393.02" y1="115.52" x2="373.29" y2="115.52"/>
      <path class="cls-42" d="M396.03,115.52c-1.42-.53-3.18-1.43-4.27-2.38l.86,2.38-.86,2.38c1.09-.95,2.85-1.85,4.27-2.38Z"/>
      <path class="cls-42" d="M370.27,115.52c1.42-.53,3.18-1.43,4.27-2.38l-.86,2.38.86,2.38c-1.09-.95-2.85-1.85-4.27-2.38Z"/>
    </g>
    <line class="cls-5" x1="333.03" y1="105.74" x2="333.03" y2="186.74"/>
    <line class="cls-5" x1="247.03" y1="186.85" x2="370.03" y2="186.85"/>
    <line class="cls-5" x1="247.03" y1="207.24" x2="247.03" y2="186.74"/>
    <line class="cls-5" x1="370.14" y1="114.74" x2="370.14" y2="187.24"/>
    <g>
      <line class="cls-5" x1="329.92" y1="105.71" x2="325.19" y2="105.71"/>
      <path class="cls-42" d="M332.94,105.71c-1.42-.53-3.18-1.43-4.27-2.38l.86,2.38-.86,2.38c1.09-.95,2.85-1.85,4.27-2.38Z"/>
      <path class="cls-42" d="M322.18,105.71c1.42-.53,3.18-1.43,4.27-2.38l-.86,2.38.86,2.38c-1.09-.95-2.85-1.85-4.27-2.38Z"/>
    </g>
  </g>
  <g id="AMd.c">
    <g>
      <line class="cls-18" x1="375.03" y1="138.74" x2="392.41" y2="138.74"/>
      <path class="cls-51" d="M396.03,138.74c-1.7.63-3.82,1.71-5.13,2.85l1.03-2.85-1.03-2.85c1.31,1.14,3.42,2.22,5.13,2.85Z"/>
    </g>
    <line class="cls-18" x1="375.23" y1="138.74" x2="375.23" y2="178.74"/>
    <line class="cls-18" x1="240.03" y1="178.54" x2="375.19" y2="178.54"/>
    <line class="cls-18" x1="287.23" y1="178.74" x2="287.23" y2="207.14"/>
    <g>
      <line class="cls-18" x1="251.41" y1="123.74" x2="243.15" y2="123.74"/>
      <path class="cls-51" d="M255.03,123.74c-1.7-.63-3.82-1.71-5.13-2.85l1.03,2.85-1.03,2.85c1.31-1.14,3.42-2.22,5.13-2.85Z"/>
      <path class="cls-51" d="M239.53,123.74c1.7-.63,3.82-1.71,5.13-2.85l-1.03,2.85,1.03,2.85c-1.31-1.14-3.42-2.22-5.13-2.85Z"/>
    </g>
    <line class="cls-18" x1="239.23" y1="123.74" x2="239.23" y2="178.74"/>
    <g>
      <line class="cls-18" x1="252.12" y1="144" x2="239.03" y2="144"/>
      <path class="cls-51" d="M255.74,144c-1.7-.63-3.82-1.71-5.13-2.85l1.03,2.85-1.03,2.85c1.31-1.14,3.42-2.22,5.13-2.85Z"/>
    </g>
  </g>
  <g id="notes">
    <g>
      <line class="cls-19" x1="35.03" y1="391.54" x2="33.53" y2="391.54"/>
      <line class="cls-2" x1="30.53" y1="391.54" x2="20.03" y2="391.54"/>
      <line class="cls-19" x1="18.53" y1="391.54" x2="17.03" y2="391.54"/>
    </g>
    <text class="cls-32" transform="translate(38.88 395.02)"><tspan x="0" y="0">non domain specific</tspan><tspan class="cls-68" x="88.38" y="0"> </tspan><tspan x="90.61" y="0">AM connections</tspan></text>
    <line class="cls-19" x1="17.03" y1="378.54" x2="37.03" y2="378.54"/>
    <text class="cls-32" transform="translate(39.16 380.21)"><tspan x="0" y="0">non domain specific</tspan><tspan class="cls-68" x="88.38" y="0"> </tspan><tspan class="cls-57" x="90.61" y="0">A</tspan><tspan x="96.54" y="0">V connections</tspan></text>
  </g>
</svg>